<mxfile host="app.diagrams.net" modified="2020-10-21T03:01:44.680Z" agent="5.0 (Windows NT 10.0; WOW64) AppleWebKit/537.36 (KHTML, like Gecko) Chrome/80.0.3987.162 Safari/537.36" etag="tnVLQNlwR_Cz1o-mbyok" version="13.8.1" type="github">
  <diagram id="BvZ-COXXViEzjNhuf3pY" name="Page-1">
    <mxGraphModel dx="1221" dy="645" grid="1" gridSize="10" guides="1" tooltips="1" connect="1" arrows="1" fold="1" page="1" pageScale="1" pageWidth="827" pageHeight="1169" math="0" shadow="0">
      <root>
        <mxCell id="0" />
        <mxCell id="1" parent="0" />
        <mxCell id="W1T311rMxpBIpC6KNnp8-5" value="K8S" style="rounded=0;whiteSpace=wrap;html=1;" parent="1" vertex="1">
          <mxGeometry x="240" y="240" width="260" height="30" as="geometry" />
        </mxCell>
        <mxCell id="W1T311rMxpBIpC6KNnp8-6" value="Docker&amp;amp;Docker2" style="rounded=0;whiteSpace=wrap;html=1;" parent="1" vertex="1">
          <mxGeometry x="240" y="270" width="260" height="30" as="geometry" />
        </mxCell>
      </root>
    </mxGraphModel>
  </diagram>
</mxfile>
